<svg width="16.000000" height="16.000000" viewBox="0 0 16 16" fill="none" xmlns="http://www.w3.org/2000/svg" xmlns:xlink="http://www.w3.org/1999/xlink">
	<desc>
			Created with Pixso.
	</desc>
	<defs/>
	<path id="Vector" d="M14.4 3.2L13.6 3.2L13.6 9.6C13.6 10.04 13.24 10.4 12.8 10.4L3.2 10.4L3.2 11.2C3.2 12.08 3.92 12.8 4.8 12.8L12.8 12.8L16 16L16 4.8C16 3.92 15.28 3.2 14.4 3.2ZM12 7.2L12 1.6C12 0.72 11.28 0 10.4 0L1.6 0C0.72 0 0 0.72 0 1.6L0 12L3.2 8.8L10.4 8.8C11.28 8.8 12 8.08 12 7.2Z" fill="#FFFFFF" fill-opacity="1.000000" fill-rule="nonzero"/>
</svg>
