<svg width="16.000000" height="12.000000" viewBox="0 0 16 12" fill="none" xmlns="http://www.w3.org/2000/svg" xmlns:xlink="http://www.w3.org/1999/xlink">
	<desc>
			Created with Pixso.
	</desc>
	<defs/>
	<path id="Vector" d="M14.4 0L1.6 0C0.72 0 0 0.67 0 1.5L0 10.5C0 11.32 0.72 12 1.6 12L14.4 12C15.28 12 16 11.32 16 10.5L16 1.5C16 0.67 15.28 0 14.4 0ZM14.08 3.18L8.84 6.25C8.32 6.56 7.67 6.56 7.15 6.25L1.92 3.18C1.72 3.06 1.6 2.86 1.6 2.64C1.6 2.14 2.18 1.84 2.64 2.1L8 5.25L13.36 2.1C13.81 1.84 14.4 2.14 14.4 2.64C14.4 2.86 14.28 3.06 14.08 3.18Z" fill="#36BA5F" fill-opacity="1.000000" fill-rule="nonzero"/>
</svg>
