<svg width="16.000000" height="16.000000" viewBox="0 0 16 16" fill="none" xmlns="http://www.w3.org/2000/svg" xmlns:xlink="http://www.w3.org/1999/xlink">
	<desc>
			Created with Pixso.
	</desc>
	<defs/>
	<path id="Vector" d="M14.43 10.91L12.17 10.65C11.62 10.59 11.09 10.77 10.7 11.16L9.07 12.79C6.54 11.51 4.48 9.45 3.2 6.92L4.84 5.28C5.23 4.89 5.41 4.36 5.35 3.82L5.09 1.57C4.99 0.67 4.23 0 3.32 0L1.78 0C0.77 0 -0.06 0.83 0 1.84C0.47 9.45 6.55 15.52 14.15 15.99C15.16 16.05 15.99 15.22 15.99 14.21L15.99 12.67C16 11.77 15.33 11.01 14.43 10.91Z" fill="#36BA5F" fill-opacity="1.000000" fill-rule="nonzero"/>
</svg>
